<svg width="121" height="120" viewBox="0 0 121 120" fill="none" xmlns="http://www.w3.org/2000/svg">
<rect x="0.5" width="120" height="120" rx="60" fill="#00C3FD"/>
<g clip-path="url(#clip0)">
<path d="M81.4852 73V48.9584L75.8283 40.4731L72.9999 39.0589L70.1714 40.4731L64.5146 48.9584V73L51.0796 86.435L58.1506 90.6777L66.6359 83.6066H79.3638L87.8491 90.6777L94.9202 86.435L81.4852 73Z" fill="white" stroke="black" stroke-width="4" stroke-linejoin="round"/>
<path d="M64.5146 73H81.4852" stroke="black" stroke-width="3"/>
<path d="M72.2927 48.2513L68.7572 51.7868V53.201L72.2927 49.6655H73.7069L77.2424 53.201V51.7868L73.7069 48.2513H72.2927Z" stroke="black" stroke-width="3" stroke-linejoin="round"/>
<path d="M45 37V91H33V37H45Z" fill="white" stroke="black" stroke-width="3" stroke-linejoin="round"/>
<path d="M45 49.5V57H64.5V49.5H45Z" fill="white" stroke="black" stroke-width="3"/>
<path d="M34.5 89.5L43.5 80.5L34.5 74L43.5 67.5L34.5 59L43.5 53L34.5 46L44.5 38.5" stroke="black" stroke-width="3"/>
<path d="M85 98H63L62 96V94L63 93H68V90.5L69.5 89H75L76 90V93H85L86 94V97L85 98Z" fill="white" stroke="black" stroke-width="3" stroke-linejoin="round"/>
<path d="M30 23V29" stroke="black" stroke-width="3" stroke-linecap="round"/>
<path d="M27 26H33" stroke="black" stroke-width="3" stroke-linecap="round"/>
<path d="M87 26V32" stroke="black" stroke-width="3" stroke-linecap="round"/>
<path d="M84 29H90" stroke="black" stroke-width="3" stroke-linecap="round"/>
<rect x="39" y="21" width="3" height="3" rx="1.5" fill="black"/>
<rect x="51" y="26" width="3" height="3" rx="1.5" fill="black"/>
<rect x="57" y="22" width="3" height="3" rx="1.5" fill="black"/>
<rect x="69" y="28" width="3" height="3" rx="1.5" fill="black"/>
<rect x="74" y="22" width="3" height="3" rx="1.5" fill="black"/>
<rect x="94" y="23" width="3" height="3" rx="1.5" fill="black"/>
</g>
<defs>
<clipPath id="clip0">
<rect x="21" y="20" width="80" height="80" fill="white"/>
</clipPath>
</defs>
</svg>
