<svg id="eb8z4g2piy3i1" xmlns="http://www.w3.org/2000/svg" xmlns:xlink="http://www.w3.org/1999/xlink" viewBox="0 0 121 120" shape-rendering="geometricPrecision" text-rendering="geometricPrecision"><style><![CDATA[#eb8z4g2piy3i12_to {animation: eb8z4g2piy3i12_to__to 10000ms linear 1 normal forwards}@keyframes eb8z4g2piy3i12_to__to { 0% {transform: translate(72.982207px,66.868219px)} 100% {transform: translate(72.132991px,162.864451px)} }#eb8z4g2piy3i13_to {animation: eb8z4g2piy3i13_to__to 10000ms linear 1 normal forwards}@keyframes eb8z4g2piy3i13_to__to { 0% {transform: translate(73.138580px,75.001305px)} 100% {transform: translate(72.289364px,170.997536px)} }#eb8z4g2piy3i14_to {animation: eb8z4g2piy3i14_to__to 10000ms linear 1 normal forwards}@keyframes eb8z4g2piy3i14_to__to { 0% {transform: translate(73.107306px,52.727180px)} 100% {transform: translate(72.258090px,148.723411px)} }]]></style><rect id="eb8z4g2piy3i2" width="3" height="3" rx="1.500000" ry="1.500000" transform="matrix(1 0 0 1 42.74790000000000 22.75120000000000)" fill="rgb(0,0,0)" stroke="none" stroke-width="1"/><rect id="eb8z4g2piy3i3" width="120" height="120" rx="60" ry="60" transform="matrix(1 0 0 1 0.50000000000000 0)" fill="rgb(0,195,253)" stroke="none" stroke-width="1"/><rect id="eb8z4g2piy3i4" width="3" height="3" rx="1.500000" ry="1.500000" transform="matrix(1 0 0 1 57.13770000000000 5.53083000000000)" fill="rgb(0,0,0)" stroke="none" stroke-width="1"/><rect id="eb8z4g2piy3i5" width="3" height="3" rx="1.500000" ry="1.500000" transform="matrix(1 0 0 1 68.79870000000000 19.51390000000000)" fill="rgb(0,0,0)" stroke="none" stroke-width="1"/><rect id="eb8z4g2piy3i6" width="3" height="3" rx="1.500000" ry="1.500000" transform="matrix(1 0 0 1 54.64620000000000 17.12400000000000)" fill="rgb(0,0,0)" stroke="none" stroke-width="1"/><g id="eb8z4g2piy3i7" transform="matrix(0.99996100000000 -0.00884600000000 0.00884600000000 0.99996100000000 -13.82160000000000 3.92894000000000)"><g id="eb8z4g2piy3i8"><g id="eb8z4g2piy3i9" transform="matrix(1 0 0 1 0.12384396863808 -13.99945045482119)"><g id="eb8z4g2piy3i10" transform="matrix(1 0 0 1 0.75190980958837 -84.99666347570002)"><g id="eb8z4g2piy3i11"><g id="eb8z4g2piy3i12_to" transform="translate(72.982207,66.868219)"><path id="eb8z4g2piy3i12" d="M81.485200,73L81.485200,48.958400L75.828300,40.473100L72.999900,39.058900L70.171400,40.473100L64.514600,48.958400L64.514600,73L51.079600,86.435000L58.150600,90.677700L66.635900,83.606600L79.363800,83.606600L87.849100,90.677700L94.920200,86.435000Z" transform="translate(-72.999899,-64.868298)" fill="rgb(255,255,255)" stroke="rgb(0,0,0)" stroke-width="4" stroke-linejoin="round"/></g><g id="eb8z4g2piy3i13_to" transform="translate(73.138580,75.001305)"><path id="eb8z4g2piy3i13" d="M64.514600,73L81.485200,73" transform="translate(-72.999901,-73)" fill="none" stroke="rgb(0,0,0)" stroke-width="3"/></g><g id="eb8z4g2piy3i14_to" transform="translate(73.107306,52.727180)"><path id="eb8z4g2piy3i14" d="M72.292700,48.251300L68.757200,51.786800L68.757200,53.201000L72.292700,49.665500L73.706900,49.665500L77.242400,53.201000L77.242400,51.786800L73.706900,48.251300Z" transform="translate(-72.999802,-50.726151)" fill="none" stroke="rgb(0,0,0)" stroke-width="3" stroke-linejoin="round"/></g></g></g></g></g></g><path id="eb8z4g2piy3i15" d="M117.962830,71.309751L112.977760,80.558241L106.839720,89.223494L98.605680,88.376052L90.647219,93.509213L81.814854,95.748371L34.877236,96.188250L24.138083,90.520643L13.014170,95.001645C50.512357,141.855280,114.475870,112.479780,117.962830,71.309751" fill="rgb(0,0,0)" stroke="rgb(0,0,0)" stroke-width="2.500000" stroke-linecap="round" stroke-linejoin="bevel"/><g id="eb8z4g2piy3i16" transform="matrix(1 0 0 1 -4.06780000000000 -3.81356000000000)"><path id="eb8z4g2piy3i17" d="M29.883473,25.852862L29.883473,31.852862" fill="none" stroke="rgb(0,0,0)" stroke-width="3" stroke-linecap="round"/><path id="eb8z4g2piy3i18" d="M26.883473,28.852862L32.883473,28.852862" fill="none" stroke="rgb(0,0,0)" stroke-width="3" stroke-linecap="round"/></g><g id="eb8z4g2piy3i19" transform="matrix(1 0 0 1 -7.37288000000000 -17.28810000000000)"><path id="eb8z4g2piy3i20" d="M83.883473,31.852862L89.883473,31.852862" transform="matrix(1 0 0 1 6 0)" fill="none" stroke="rgb(0,0,0)" stroke-width="3" stroke-linecap="round"/><path id="eb8z4g2piy3i21" d="M86.883473,28.852862L86.883473,34.852862" transform="matrix(1 0 0 1 6 0)" fill="none" stroke="rgb(0,0,0)" stroke-width="3" stroke-linecap="round"/></g><rect id="eb8z4g2piy3i22" width="3" height="3" rx="1.500000" ry="1.500000" transform="matrix(1 0 0 1 33.79870000000000 13.93760000000000)" fill="rgb(0,0,0)" stroke="none" stroke-width="1"/><rect id="eb8z4g2piy3i23" width="3" height="3" rx="1.500000" ry="1.500000" transform="matrix(1 0 0 1 90.06990000000000 17.71730000000000)" fill="rgb(0,0,0)" stroke="none" stroke-width="1"/></svg>